HIERARCHY
ROOT simHips
{
  OFFSET 99.7427 99.8268 -3.65705
  CHANNELS 6 Xposition Yposition Zposition Zrotation Xrotation Yrotation
  JOINT simSpine
  {
    OFFSET -0.000355721 21.3001 -0.016921
    CHANNELS 3 Zrotation Xrotation Yrotation
    JOINT simLeftArm
    {
      OFFSET 13.5181 21.3012 0
      CHANNELS 3 Zrotation Xrotation Yrotation
      JOINT simLeftForeArm
      {
        OFFSET 24.5783 0 0
        CHANNELS 3 Zrotation Xrotation Yrotation
        JOINT simLeftHand
        {
          OFFSET 24.5783 0 0
          CHANNELS 3 Zrotation Xrotation Yrotation
          End Site
          {
            OFFSET 7.32568 1.52588e-05 0.0169305
          }
        }
      }
    }
    JOINT simHead
    {
      OFFSET 0 27.4458 -0.00489235
      CHANNELS 3 Zrotation Xrotation Yrotation
      End Site
      {
        OFFSET 0 0 0
      }
    }
    JOINT simRightArm
    {
      OFFSET -13.5174 21.3012 0
      CHANNELS 3 Zrotation Xrotation Yrotation
      JOINT simRightForeArm
      {
        OFFSET -24.5783 0 0
        CHANNELS 3 Zrotation Xrotation Yrotation
        JOINT simRightHand
        {
          OFFSET -24.5783 0 0
          CHANNELS 3 Zrotation Xrotation Yrotation
          End Site
          {
            OFFSET -7.32568 1.52588e-05 0.0169305
          }
        }
      }
    }
  }
  JOINT simRightUpLeg
  {
    OFFSET -8.44614 -9.41038 0.835684
    CHANNELS 3 Zrotation Xrotation Yrotation
    JOINT simRightLeg
    {
      OFFSET 0 -40.9639 0
      CHANNELS 3 Zrotation Xrotation Yrotation
      JOINT simRightFoot
      {
        OFFSET 0 -40.9639 0
        CHANNELS 3 Zrotation Xrotation Yrotation
        End Site
        {
          OFFSET 0.50614 -9.67405 14.6709
        }
      }
    }
  }
  JOINT simLeftUpLeg
  {
    OFFSET 8.44614 -9.41038 0.835684
    CHANNELS 3 Zrotation Xrotation Yrotation
    JOINT simLeftLeg
    {
      OFFSET 0 -40.9639 0
      CHANNELS 3 Zrotation Xrotation Yrotation
      JOINT simLeftFoot
      {
        OFFSET 0 -40.9639 0
        CHANNELS 3 Zrotation Xrotation Yrotation
        End Site
        {
          OFFSET -0.50614 -9.67405 14.6709
        }
      }
    }
  }
}
MOTION
Frames:	26
Frame Time:	0.0333333
85.1354 99.7852 -8.84705 1.70755e-06 0 -0 0 0 -0 -6.83019e-06 -1.70755e-06 -1.53679e-05 5.01592e-06 1.70755e-06 2.50273e-05 -1.86763e-07 3.14859e-14 -9.65935e-06 -3.41509e-06 0 -0 6.83019e-06 -8.53773e-07 5.12264e-06 -8.43102e-06 2.35199e-06 4.05805e-05 -1.06722e-07 6.83019e-06 9.1791e-06 -3.54949 -0.605575 -0.0178363 5.41959e-05 0.061118 0.000584179 3.54941 0.544481 -0.016489 1.19651 -1.49592 0.00385021 -0.00010119 2.26286 -0.00711255 -1.19632 -0.766843 -0.0127469 
84.4577 99.8611 -8.79894 0.0920957 -0.0358644 0.377481 -0.168842 0.0476058 -0.235353 0.142294 0.152976 -0.1845 -0.0598911 0.4094 -0.0292655 -0.182645 -0.368093 -0.119537 0.13535 -0.330414 -0.0647653 0.0862813 -0.0285266 -0.210632 0.0231366 2.35199e-06 4.05805e-05 0.0424645 -0.0690456 -0.0299226 -3.18479 -0.474246 -0.0171591 0.0123737 0.0758356 -0.0282679 2.92 0.411738 -0.285332 1.5651 -1.50847 -0.0145414 -0.0547424 2.25568 0.0894697 -1.66973 -0.436225 -0.214269 
83.8897 99.9309 -8.77757 0.238017 -0.0674162 0.677798 -0.35493 0.110504 -0.387827 0.159464 0.307094 -0.401756 -0.0168915 0.114724 -0.00817514 -0.147841 -0.164816 0.0676922 0.1664 -0.640215 -0.136829 0.203942 -0.0774966 -0.381772 0.070952 2.35199e-06 4.05805e-05 0.00648854 0.0469476 0.00198377 -2.94589 -0.30975 0.0416189 -0.00836912 -0.050322 -0.0399126 2.4254 0.394753 -0.549481 1.75843 -1.55772 0.114841 -0.071826 2.25321 0.162067 -2.07864 0.0282778 -0.276799 
83.4423 100.015 -8.79725 0.40286 -0.0711554 0.806854 -0.498964 0.157655 -0.397584 0.0639105 0.544492 -0.568283 0.00338603 -0.023407 7.90407e-05 -0.229534 -0.0420152 -0.0627881 0.0815432 -0.846852 -0.11192 0.366392 0.0364583 -0.553188 0.0777391 2.35199e-06 4.05805e-05 -0.0280643 -0.0585055 -0.0572104 -2.76273 -0.392724 0.0711119 -0.112358 0.134628 -0.0236834 2.16238 0.275362 -0.731096 1.95475 -1.97365 0.560188 -0.343397 2.83548 0.233509 -2.2684 0.361741 -0.214056 
83.1239 100.059 -8.83706 0.491853 -0.0703437 0.748924 -0.481974 0.228698 -0.310835 -0.189302 0.651061 -0.664084 -0.0378936 0.257899 -0.0184251 -0.233657 -0.237581 -0.0704585 -0.215892 -1.02878 0.0119233 0.446845 0.198904 -0.553082 0.109763 2.35199e-06 4.05805e-05 0.0181694 0.074952 -0.0541678 -2.6308 -0.362647 -0.0388594 -0.142313 3.69122e-05 -0.0185536 2.01908 0.342384 -0.571803 2.0478 -2.22262 1.48984 -0.434006 3.07825 0.242481 -2.37366 0.620118 -0.0708072 
82.9327 100.059 -8.89742 0.452818 -0.0418556 0.558881 -0.249672 0.317691 -0.193953 -0.5144 0.613785 -0.664904 -0.115687 0.794897 -0.0566334 -0.376665 -0.672364 -0.0767374 -0.633565 -1.18516 0.274584 0.385601 0.363419 -0.414752 0.107803 2.35199e-06 4.05805e-05 0.0940894 0.286084 -0.120202 -2.46927 -0.438716 -0.111011 -0.116113 -0.0456329 -0.0238084 1.93859 0.429661 -0.314725 2.17112 -2.25204 1.68865 -0.408271 2.99072 0.236064 -2.48273 0.70501 0.331545 
82.8175 100.012 -8.94595 0.312353 0.0271043 0.370275 0.0860284 0.362649 -0.15729 -0.784342 0.6773 -0.559486 -0.172211 1.18902 -0.0847234 -0.428819 -0.904063 -0.0395968 -1.00535 -1.29037 0.563363 0.190833 0.565219 -0.114654 0.156606 2.35199e-06 4.05805e-05 0.0879166 0.393848 -0.0740359 -2.27784 -0.601403 -0.00401437 -0.0314748 -0.00408624 -0.0343707 1.82772 0.480161 -0.242408 2.27102 -1.93019 1.97872 -0.0701846 2.26554 0.163716 -2.69862 0.750984 0.0213272 
82.7699 99.9562 -8.99105 0.1861 0.044534 0.247698 0.389951 0.424282 -0.113002 -0.98861 0.602223 -0.584235 -0.220749 1.53099 -0.10909 -0.412614 -1.25534 0.122887 -1.21685 -1.24197 0.748545 0.000583885 0.542538 0.085145 0.154728 2.35199e-06 4.05805e-05 0.150323 0.423435 -0.0565854 -2.16503 -0.87583 0.135495 0.088174 0.407391 -0.0542373 1.76516 0.308253 -0.210998 2.49284 -1.91592 1.79849 -0.0816458 2.28257 0.0788186 -2.71693 0.394481 0.0548524 
82.771 99.9161 -9.05045 0.130429 0.11526 0.252007 0.576358 0.407623 -0.129666 -1.09054 0.707492 -0.679971 -0.222807 1.54484 -0.109949 -0.542014 -1.23653 0.205589 -1.29076 -1.09136 0.812176 -0.137835 0.497948 0.199757 0.132485 2.35199e-06 4.05805e-05 0.0832958 0.298005 -0.1415 -2.14104 -1.12746 0.210366 0.162491 0.669662 -0.061981 1.776 0.227353 -0.284975 2.52552 -1.94827 1.80146 -0.00296372 2.16914 -0.00799192 -2.73349 0.3056 -0.0057531 
82.7875 99.892 -9.11012 0.0835595 0.172669 0.412479 0.693068 0.423623 -0.237741 -1.0908 0.914218 -0.815523 -0.203248 1.40625 -0.0997763 -0.541329 -1.12863 0.246162 -1.26387 -0.899358 0.732695 -0.25092 0.435493 0.264233 0.162379 2.35199e-06 4.05805e-05 0.00346454 0.401743 -0.133858 -2.10079 -1.16775 0.0962163 0.145174 0.583921 -0.0418984 1.83841 0.316004 -0.361149 2.55158 -2.06061 1.86779 0.0368445 2.14255 -0.0917039 -2.73712 0.349009 -0.196186 
82.8409 99.8882 -9.17832 0.0509738 0.233174 0.661711 0.781037 0.476409 -0.37259 -1.04075 0.838508 -1.05094 -0.238107 1.65372 -0.117125 -0.496687 -1.22668 0.137111 -1.18627 -0.803385 0.712873 -0.376244 0.314003 0.200739 0.171192 2.35199e-06 4.05805e-05 -0.0207288 0.316415 -0.148464 -2.10002 -1.19746 -0.139038 0.119479 0.48082 -0.0282899 2.02682 0.430969 -0.417104 2.56768 -2.22107 2.04505 -0.00165085 2.18976 -0.113165 -2.65348 0.336774 -0.655914 
82.9201 99.8879 -9.2328 0.0265657 0.288011 0.907468 0.840246 0.501326 -0.497562 -0.956395 0.889545 -1.2517 -0.222446 1.54257 -0.109042 -0.509414 -1.21791 0.310019 -1.10666 -0.620344 0.703276 -0.489388 0.198058 0.125602 0.187436 2.35199e-06 4.05805e-05 0.00428112 0.417357 -0.112422 -2.1181 -1.19322 -0.43277 0.0808793 0.335994 -0.0161461 2.07904 0.517652 -0.385375 2.52451 -2.3031 1.75943 0.0166018 2.10604 -0.112866 -2.60011 0.366188 -0.651499 
83.0211 99.8877 -9.27138 -0.0129037 0.345418 1.12416 0.898539 0.487288 -0.614896 -0.885528 0.926406 -1.39459 -0.215684 1.49564 -0.105308 -0.532185 -1.15433 0.289501 -0.980795 -0.443553 0.787752 -0.553535 0.10617 0.0560651 0.18537 2.35199e-06 4.05805e-05 0.00183501 0.359474 -0.190537 -2.13248 -1.14714 -0.489132 0.0333809 0.128892 -0.00166078 2.20781 0.626794 -0.561539 2.48001 -2.37443 1.48783 0.0215183 2.03501 -0.106356 -2.51691 0.363946 -0.626204 
83.149 99.8877 -9.30489 -0.0240288 0.415304 1.2397 0.924686 0.453181 -0.667926 -0.875002 0.984789 -1.43227 -0.175032 1.2108 -0.0842264 -0.395931 -0.882884 0.25933 -0.882278 -0.28157 0.879666 -0.561023 0.0271899 0.0387412 0.178933 2.35199e-06 4.05805e-05 0.0256991 0.416779 -0.304864 -2.19907 -1.19892 -0.647413 0.00763968 0.0500588 0.00683992 2.36933 0.701542 -0.567952 2.3867 -2.51603 1.49537 0.0460451 2.09826 -0.105553 -2.42286 0.314081 -0.788864 
83.2791 99.8877 -9.33717 -0.0523079 0.478725 1.31741 0.944497 0.444361 -0.700276 -0.87816 0.961149 -1.45341 -0.229721 1.59457 -0.111844 -0.577709 -1.27503 0.174298 -0.769829 -0.174808 0.950378 -0.501607 -0.0215841 0.0199984 0.192724 2.35199e-06 4.05805e-05 0.00593702 0.506624 -0.279761 -2.24224 -1.27991 -0.782827 -0.0353738 0.0496053 0.0177497 2.52828 0.7313 -0.550416 2.34527 -2.62448 1.38387 0.00671953 2.10754 -0.0951215 -2.30586 0.291403 -0.789421 
83.4057 99.8879 -9.36454 -0.0887109 0.548895 1.30591 0.929678 0.406491 -0.683898 -0.891292 0.906042 -1.40054 -0.212099 1.47016 -0.102635 -0.674695 -1.05399 0.296363 -0.605959 -0.138909 0.985624 -0.380043 -0.0527625 0.020553 0.204291 2.35199e-06 4.05805e-05 0.0159522 0.40181 -0.252753 -2.27121 -1.37926 -0.924366 -0.0819966 0.0559857 0.0297376 2.70043 0.769195 -0.421382 2.27701 -2.66303 1.42704 0.0459818 2.01837 -0.0980635 -2.23514 0.304618 -0.824688 
83.5513 99.8878 -9.38557 -0.104895 0.59541 1.23292 0.932751 0.402443 -0.620674 -0.932976 0.835275 -1.31729 -0.272474 1.89962 -0.133211 -0.647004 -1.46832 0.141128 -0.570171 -0.128536 0.99255 -0.310892 0.00542918 0.0427992 0.213127 2.35199e-06 4.05805e-05 0.0485936 0.481856 -0.238099 -2.31733 -1.43195 -0.93502 -0.143813 -0.00254486 0.0454107 2.85156 0.853948 -0.408967 2.18842 -2.71019 1.15458 0.046039 2.00969 -0.0971728 -2.13204 0.279942 -0.490515 
83.6999 99.8877 -9.39985 -0.107903 0.643691 1.1554 0.930058 0.390658 -0.551198 -1.00038 0.898839 -1.22937 -0.313591 2.19452 -0.154132 -0.589586 -1.54094 -0.00637746 -0.534482 -0.106959 0.99353 -0.24055 0.0945009 0.0421256 0.202395 2.35199e-06 4.05805e-05 0.0480489 0.367679 -0.313515 -2.41981 -1.54248 -0.918144 -0.132404 0.0663798 0.0449091 2.89879 0.886836 -0.364626 2.1067 -2.75108 1.1139 0.00930255 2.00306 -0.0940527 -2.00807 0.251957 -0.40025 
83.8458 99.8874 -9.41273 -0.114946 0.675317 1.08348 0.925842 0.418331 -0.493405 -1.09632 0.85066 -1.15625 -0.267863 1.86773 -0.130225 -0.649648 -1.40816 0.273984 -0.538062 -0.0385345 1.01205 -0.186435 0.00189833 0.0776983 0.195934 2.35199e-06 4.05805e-05 0.0464565 0.458717 -0.253593 -2.4971 -1.56802 -1.00741 -0.139959 0.00166569 0.0427811 2.95199 0.977275 -0.223347 2.02855 -2.8159 1.18358 0.0167385 2.07445 -0.0880857 -1.91629 0.186075 -0.404872 
83.982 99.8858 -9.42106 -0.121304 0.650769 1.04875 0.925158 0.468134 -0.463645 -1.17217 0.806653 -1.09851 -0.256137 1.7835 -0.123988 -0.656143 -1.40996 0.33188 -0.558103 0.0478327 1.02282 -0.144287 -0.0756715 0.105213 0.183778 2.35199e-06 4.05805e-05 0.0667809 0.411222 -0.316676 -2.59099 -1.59144 -1.02567 -0.123959 0.071167 0.0400403 3.03535 0.990419 -0.197698 1.93328 -2.74157 1.24379 0.0273422 1.97522 -0.0835004 -1.81739 0.228673 -0.445488 
84.1054 99.8754 -9.42826 -0.129883 0.621982 1.07462 0.932661 0.495446 -0.469546 -1.22302 0.825263 -1.08649 -0.285516 1.99343 -0.138833 -0.634047 -1.50805 0.272146 -0.591581 0.148073 1.04483 -0.143594 0.0367124 0.0836681 0.186866 2.35199e-06 4.05805e-05 0.0454964 0.36883 -0.276306 -2.68138 -1.52207 -1.02645 -0.0935513 0.000253639 0.037889 3.0585 1.04086 -0.19941 1.84878 -2.73188 1.13441 0.0269058 2.00869 -0.0800134 -1.72559 0.170174 -0.378034 
84.2107 99.8663 -9.42581 -0.135812 0.53167 1.19956 0.942475 0.601368 -0.491519 -1.28967 0.943219 -1.15006 -0.252814 1.76154 -0.121601 -0.73229 -1.46653 0.390363 -0.651205 0.245073 1.0415 -0.177373 0.0655965 -0.0359637 0.193373 2.35199e-06 4.05805e-05 0.0813813 0.399848 -0.256466 -2.74216 -1.40417 -1.15671 -0.0886592 -0.00172543 0.0373176 3.01706 1.05365 -0.208644 1.76712 -2.63341 0.956934 0.0472857 1.99306 -0.0783782 -1.65881 0.145327 -0.34256 
84.3311 99.8665 -9.4257 -0.0813205 0.59574 1.2805 0.901599 0.566484 -0.514852 -1.36558 1.01186 -1.15456 -0.229396 1.59572 -0.109503 -0.745976 -1.35512 0.435715 -0.650458 0.365278 1.11367 -0.230107 0.0271037 -0.0949162 0.182872 2.35199e-06 4.05805e-05 0.0631661 0.353538 -0.334576 -2.89697 -1.46653 -1.13469 -0.0714186 0.0020284 0.0353322 3.01794 1.05847 -0.309541 1.62012 -2.70729 0.89074 0.0566127 1.98175 -0.076801 -1.58102 0.172428 -0.373088 
84.4216 99.8643 -9.41409 -0.0716174 0.60683 1.39881 0.876022 0.552472 -0.535999 -1.38824 0.981584 -1.20297 -0.242685 1.68725 -0.108981 -0.68068 -1.55274 0.370663 -0.608777 0.427508 1.14818 -0.231404 -0.0274466 -0.211956 0.167162 2.35199e-06 4.05805e-05 0.0767714 0.285867 -0.300362 -2.96791 -1.49415 -1.14594 -0.0778995 0.0829752 0.0327784 3.04948 1.01924 -0.426276 1.54934 -2.73955 0.803795 0.0155861 2.00676 -0.072839 -1.49692 0.158065 -0.399214 
84.5031 99.8615 -9.40206 -0.0651608 0.581223 1.49167 0.83853 0.589888 -0.563656 -1.39475 0.991032 -1.17284 -0.236504 1.64493 -0.112619 -0.686452 -1.54804 0.429206 -0.563793 0.448114 1.12497 -0.208223 -0.0531666 -0.28745 0.169895 2.35199e-06 4.05805e-05 0.145768 0.274208 -0.310743 -3.03836 -1.40066 -1.24672 -0.0538495 -0.00235191 0.0296765 2.99623 1.07268 -0.424314 1.47864 -2.70723 0.751722 0.0132615 2.01554 -0.0691957 -1.42283 0.122567 -0.430043 
84.5776 99.8585 -9.39739 -0.0606778 0.587876 1.55919 0.789548 0.607128 -0.607231 -1.40242 1.02357 -1.10196 -0.246074 1.71413 -0.117205 -0.664499 -1.67854 0.440335 -0.552369 0.418318 1.07679 -0.179272 -0.0988545 -0.308453 0.194538 2.35199e-06 4.05805e-05 0.0550231 0.286641 -0.275144 -3.11072 -1.42956 -1.29513 -0.0314427 0.0788295 0.0260472 2.96544 1.05355 -0.393305 1.4129 -2.71147 0.739973 0.028872 2.00646 -0.06786 -1.37904 0.12762 -0.502137 
